{
  "accessors": [
    {
      "bufferView": 2,
      "componentType": 5126,
      "count": 1422,
      "max": [
        0.45940101146698,
        0.5767930150032043,
        4.8458638191223145
      ],
      "min": [
        -0.01142599992454052,
        -0.31077098846435547,
        3.6818509101867676
      ],
      "type": "VEC3"
    },
    {
      "bufferView": 2,
      "byteOffset": 17064,
      "componentType": 5126,
      "count": 1422,
      "max": [
        0.9997474551200867,
        0.9996814131736755,
        0.9976288080215454
      ],
      "min": [
        -0.9997642636299133,
        -0.9995059370994568,
        -0.9979180693626404
      ],
      "type": "VEC3"
    },
    {
      "bufferView": 1,
      "componentType": 5126,
      "count": 1422,
      "max": [
        0.8180360198020935,
        0.999114990234375
      ],
      "min": [
        0.012649999931454659,
        0.00022899999748915434
      ],
      "type": "VEC2"
    },
    {
      "bufferView": 0,
      "componentType": 5125,
      "count": 3990,
      "type": "SCALAR"
    },
    {
      "bufferView": 2,
      "byteOffset": 34128,
      "componentType": 5126,
      "count": 270,
      "max": [
        0.42078399658203125,
        0.38580000400543213,
        4.796839237213135
      ],
      "min": [
        -0.02374500036239624,
        -0.27665600180625916,
        3.715718984603882
      ],
      "type": "VEC3"
    },
    {
      "bufferView": 2,
      "byteOffset": 37368,
      "componentType": 5126,
      "count": 270,
      "max": [
        0.9974807500839233,
        0.9987995028495789,
        0.9949440956115723
      ],
      "min": [
        -0.9997772574424744,
        -0.9979020357131958,
        -0.9991657733917236
      ],
      "type": "VEC3"
    },
    {
      "bufferView": 1,
      "byteOffset": 11376,
      "componentType": 5126,
      "count": 270,
      "max": [
        0.6948350071907043,
        0.9842219948768616
      ],
      "min": [
        0.017136000096797943,
        0.02404800057411194
      ],
      "type": "VEC2"
    },
    {
      "bufferView": 0,
      "byteOffset": 15960,
      "componentType": 5125,
      "count": 1035,
      "type": "SCALAR"
    },
    {
      "bufferView": 2,
      "byteOffset": 40608,
      "componentType": 5126,
      "count": 1486,
      "max": [
        0.7228059768676758,
        0.281453013420105,
        3.0424349308013916
      ],
      "min": [
        -0.3646639883518219,
        -0.3861030042171478,
        0.4023509919643402
      ],
      "type": "VEC3"
    },
    {
      "bufferView": 2,
      "byteOffset": 58440,
      "componentType": 5126,
      "count": 1486,
      "max": [
        0.999595582485199,
        0.9990283846855164,
        0.9955365657806396
      ],
      "min": [
        -0.9996029734611511,
        -0.9997212290763855,
        -0.9991293549537659
      ],
      "type": "VEC3"
    },
    {
      "bufferView": 1,
      "byteOffset": 13536,
      "componentType": 5126,
      "count": 1486,
      "max": [
        0.9973909854888916,
        0.9971010088920593
      ],
      "min": [
        0.0028989999555051327,
        0.002609000075608492
      ],
      "type": "VEC2"
    },
    {
      "bufferView": 0,
      "byteOffset": 20100,
      "componentType": 5125,
      "count": 5550,
      "type": "SCALAR"
    },
    {
      "bufferView": 2,
      "byteOffset": 76272,
      "componentType": 5126,
      "count": 420,
      "max": [
        0.583253026008606,
        0.35835200548171997,
        0.5876790285110474
      ],
      "min": [
        -0.4396199882030487,
        -0.5527740120887756,
        -0.007255000062286854
      ],
      "type": "VEC3"
    },
    {
      "bufferView": 2,
      "byteOffset": 81312,
      "componentType": 5126,
      "count": 420,
      "max": [
        0.9986404776573181,
        0.9983189105987549,
        0.996399998664856
      ],
      "min": [
        -0.9999853372573853,
        -0.9984728693962097,
        -0.999428391456604
      ],
      "type": "VEC3"
    },
    {
      "bufferView": 1,
      "byteOffset": 25424,
      "componentType": 5126,
      "count": 420,
      "max": [
        0.9898989796638489,
        0.9899140000343323
      ],
      "min": [
        0.1259779930114746,
        0.06565999984741211
      ],
      "type": "VEC2"
    },
    {
      "bufferView": 0,
      "byteOffset": 42300,
      "componentType": 5125,
      "count": 1728,
      "type": "SCALAR"
    },
    {
      "bufferView": 2,
      "byteOffset": 86352,
      "componentType": 5126,
      "count": 1452,
      "max": [
        1.2442079782485962,
        0.3181129992008209,
        4.693553924560547
      ],
      "min": [
        -0.8377410173416138,
        -0.38710400462150574,
        0.051562000066041946
      ],
      "type": "VEC3"
    },
    {
      "bufferView": 2,
      "byteOffset": 103776,
      "componentType": 5126,
      "count": 1452,
      "max": [
        0.9997968077659607,
        0.9999513626098633,
        0.998778760433197
      ],
      "min": [
        -0.9991483688354492,
        -0.9985372424125671,
        -0.9965280294418335
      ],
      "type": "VEC3"
    },
    {
      "bufferView": 1,
      "byteOffset": 28784,
      "componentType": 5126,
      "count": 1452,
      "max": [
        0.9921870231628418,
        0.9932100176811218
      ],
      "min": [
        0.008086999878287315,
        0.0038530000019818544
      ],
      "type": "VEC2"
    },
    {
      "bufferView": 0,
      "byteOffset": 49212,
      "componentType": 5125,
      "count": 7014,
      "type": "SCALAR"
    },
    {
      "bufferView": 2,
      "byteOffset": 121200,
      "componentType": 5126,
      "count": 930,
      "max": [
        0.9935629963874817,
        0.30225101113319397,
        4.238893032073975
      ],
      "min": [
        -0.6511279940605164,
        -0.41370001435279846,
        2.5897600650787354
      ],
      "type": "VEC3"
    },
    {
      "bufferView": 2,
      "byteOffset": 132360,
      "componentType": 5126,
      "count": 930,
      "max": [
        0.9999786615371704,
        0.9996395707130432,
        0.9807554483413696
      ],
      "min": [
        -0.9982618093490601,
        -0.9986572861671448,
        -0.9999279975891113
      ],
      "type": "VEC3"
    },
    {
      "bufferView": 1,
      "byteOffset": 40400,
      "componentType": 5126,
      "count": 930,
      "max": [
        0.9942929744720459,
        0.9962310194969177
      ],
      "min": [
        0.010085999965667725,
        0.007400999777019024
      ],
      "type": "VEC2"
    },
    {
      "bufferView": 0,
      "byteOffset": 77268,
      "componentType": 5125,
      "count": 4512,
      "type": "SCALAR"
    }
  ],
  "asset": {
    "extras": {
      "author": "Phoenix... (https://sketchfab.com/projectend0005)",
      "license": "CC-BY-4.0 (http://creativecommons.org/licenses/by/4.0/)",
      "source": "https://sketchfab.com/3d-models/free-fire-girl-model-ea40e26803d045f1b93f225687b64797",
      "title": "Free fire-girl model"
    },
    "generator": "Sketchfab-12.64.0",
    "version": "2.0"
  },
  "bufferViews": [
    {
      "buffer": 0,
      "byteLength": 95316,
      "name": "floatBufferViews",
      "target": 34963
    },
    {
      "buffer": 0,
      "byteLength": 47840,
      "byteOffset": 95316,
      "byteStride": 8,
      "name": "floatBufferViews",
      "target": 34962
    },
    {
      "buffer": 0,
      "byteLength": 143520,
      "byteOffset": 143156,
      "byteStride": 12,
      "name": "floatBufferViews",
      "target": 34962
    }
  ],
  "buffers": [
    {
      "byteLength": 286676,
      "uri": "scene.bin"
    }
  ],
  "images": [
    {
      "uri": "textures/mat0_baseColor.png"
    },
    {
      "uri": "textures/mat0.001_baseColor.png"
    },
    {
      "uri": "textures/mat0.002_baseColor.png"
    },
    {
      "uri": "textures/mat0.003_baseColor.png"
    },
    {
      "uri": "textures/mat0.004_baseColor.png"
    },
    {
      "uri": "textures/mat0.005_baseColor.png"
    }
  ],
  "materials": [
    {
      "doubleSided": true,
      "name": "mat0",
      "pbrMetallicRoughness": {
        "baseColorTexture": {
          "index": 0
        },
        "metallicFactor": 0.0,
        "roughnessFactor": 0.6
      }
    },
    {
      "doubleSided": true,
      "name": "mat0.001",
      "pbrMetallicRoughness": {
        "baseColorTexture": {
          "index": 1
        },
        "metallicFactor": 0.0,
        "roughnessFactor": 0.6
      }
    },
    {
      "doubleSided": true,
      "name": "mat0.002",
      "pbrMetallicRoughness": {
        "baseColorTexture": {
          "index": 2
        },
        "metallicFactor": 0.0,
        "roughnessFactor": 0.6
      }
    },
    {
      "doubleSided": true,
      "name": "mat0.003",
      "pbrMetallicRoughness": {
        "baseColorTexture": {
          "index": 3
        },
        "metallicFactor": 0.0,
        "roughnessFactor": 0.6
      }
    },
    {
      "doubleSided": true,
      "name": "mat0.004",
      "pbrMetallicRoughness": {
        "baseColorTexture": {
          "index": 4
        },
        "metallicFactor": 0.0,
        "roughnessFactor": 0.6
      }
    },
    {
      "doubleSided": true,
      "name": "mat0.005",
      "pbrMetallicRoughness": {
        "baseColorTexture": {
          "index": 5
        },
        "metallicFactor": 0.0,
        "roughnessFactor": 0.6
      }
    }
  ],
  "meshes": [
    {
      "name": "Object_0",
      "primitives": [
        {
          "attributes": {
            "NORMAL": 1,
            "POSITION": 0,
            "TEXCOORD_0": 2
          },
          "indices": 3,
          "material": 0,
          "mode": 4
        }
      ]
    },
    {
      "name": "Object_1",
      "primitives": [
        {
          "attributes": {
            "NORMAL": 5,
            "POSITION": 4,
            "TEXCOORD_0": 6
          },
          "indices": 7,
          "material": 1,
          "mode": 4
        }
      ]
    },
    {
      "name": "Object_2",
      "primitives": [
        {
          "attributes": {
            "NORMAL": 9,
            "POSITION": 8,
            "TEXCOORD_0": 10
          },
          "indices": 11,
          "material": 2,
          "mode": 4
        }
      ]
    },
    {
      "name": "Object_3",
      "primitives": [
        {
          "attributes": {
            "NORMAL": 13,
            "POSITION": 12,
            "TEXCOORD_0": 14
          },
          "indices": 15,
          "material": 3,
          "mode": 4
        }
      ]
    },
    {
      "name": "Object_4",
      "primitives": [
        {
          "attributes": {
            "NORMAL": 17,
            "POSITION": 16,
            "TEXCOORD_0": 18
          },
          "indices": 19,
          "material": 4,
          "mode": 4
        }
      ]
    },
    {
      "name": "Object_5",
      "primitives": [
        {
          "attributes": {
            "NORMAL": 21,
            "POSITION": 20,
            "TEXCOORD_0": 22
          },
          "indices": 23,
          "material": 5,
          "mode": 4
        }
      ]
    }
  ],
  "nodes": [
    {
      "children": [
        1
      ],
      "matrix": [
        1.0,
        0.0,
        0.0,
        0.0,
        0.0,
        2.220446049250313e-16,
        -1.0,
        0.0,
        0.0,
        1.0,
        2.220446049250313e-16,
        0.0,
        0.0,
        0.0,
        0.0,
        1.0
      ],
      "name": "Sketchfab_model"
    },
    {
      "children": [
        2,
        3,
        4,
        5,
        6,
        7
      ],
      "name": "rayan.obj.cleaner.materialmerger.gles"
    },
    {
      "mesh": 0,
      "name": "Object_2"
    },
    {
      "mesh": 1,
      "name": "Object_3"
    },
    {
      "mesh": 2,
      "name": "Object_4"
    },
    {
      "mesh": 3,
      "name": "Object_5"
    },
    {
      "mesh": 4,
      "name": "Object_6"
    },
    {
      "mesh": 5,
      "name": "Object_7"
    }
  ],
  "samplers": [
    {
      "magFilter": 9729,
      "minFilter": 9987,
      "wrapS": 10497,
      "wrapT": 10497
    }
  ],
  "scene": 0,
  "scenes": [
    {
      "name": "Sketchfab_Scene",
      "nodes": [
        0
      ]
    }
  ],
  "textures": [
    {
      "sampler": 0,
      "source": 0
    },
    {
      "sampler": 0,
      "source": 1
    },
    {
      "sampler": 0,
      "source": 2
    },
    {
      "sampler": 0,
      "source": 3
    },
    {
      "sampler": 0,
      "source": 4
    },
    {
      "sampler": 0,
      "source": 5
    }
  ]
}
